Patient4_TMGait_0pt5_02_left_40_EMG.mot
version=1
nRows=33
nColumns=33
inDegrees=no
endheader
time	1LAddLong	2LGlutMax	3LGlutMed	4LIliopsoas	5LSemiMemb	6LBicFemLong	7LRecFem	8LVastMed	9LVastLat	10LGasMed	11LTibAnt	12lTibPost	13LPeroneusLong	14LSol	15LExtDigLong	16LFlexDigLong	17RAddLong	18RGlutMax	19RGlutMed	20RIliopsoas	21RSemiMemb	22RBicFemLong	23RRecFem	24RVastMed	25RVastLat	26RGasMed	27RTibAnt	28RTibPost	29RPeroneusLong	30RSol	31RExtDigLong	32RFlexDigLong
51.56	0.004883	0.31677	-0.038452	-0.014648	0.001373	0.015106	-0.078583	0.016174	-0.24902	-0.052948	-0.16419	0.019684	0.006256	0.11414	0.26154	0.003204	0.012512	-0.22766	-0.47318	-0.062256	0.062103	0.13016	-0.088348	-0.080261	0.064697	-0.007172	-0.21835	-0.003204	-0.34515	0.36346	-0.001678	0.001221
51.561	0.012665	0.30609	-0.010834	-0.011139	-0.009155	0.016632	-0.072174	0.023346	-0.16815	-0.062561	-0.041962	0.00351	0.004578	0.068512	0.18616	0.001221	0.043488	-0.22537	0.11353	-0.043182	-0.009918	0.42236	-0.15274	-0.13153	0.017853	-0.001221	0.034332	-0.003967	-0.44128	0.045471	-0.002441	0.00351
51.562	0.004272	0.27252	-0.063019	0.019989	-0.003662	0.036316	-0.034027	0.02655	-0.084381	-0.069885	0.014801	0.005646	0.019684	0.071869	-0.10529	0.011139	0.049896	-0.25803	0.16388	0.013428	-0.0737	0.64056	-0.080566	-0.11612	0.022125	-0.00824	0.65887	-0.006256	0.40482	0.052948	0.000458	0.008698
51.563	0.010071	0.21362	-0.062714	0.041656	-0.009003	0.028229	0.062714	0.026245	-0.027008	-0.071564	-0.046234	0.009918	0.067444	0.11047	-0.016785	0.009918	-0.059967	-0.24994	0.036163	0.007019	-0.19791	0.91751	-0.02655	0.077972	0.069733	-0.022583	0.76569	-0.002594	0.55862	-0.000916	0	-0.005035
51.564	0.003357	0.20889	-0.047302	0.04837	-0.003357	0.034332	0.10605	0.02594	0.012665	-0.036621	-0.058899	0.003357	0.079803	0.112	-0.0737	-0.004425	-0.061493	-0.20157	0.3746	0.032654	-0.081635	0.73975	0.040436	0.016022	0.053864	-0.022736	1.032	-0.00351	0.071259	-0.03891	-0.007324	-0.005341
51.565	0.010529	0.18417	-0.025482	0.050201	-0.001221	0.03067	0.075989	0.022583	0.060425	0.025787	-0.077057	0.013123	0.042114	0.063171	-0.3122	-0.003204	-0.049591	-0.24262	0.065918	-0.038147	-0.15381	0.39414	0.08728	0.055847	0.034332	-0.015411	0.90698	-0.002289	-0.66437	0.024872	-0.001068	-0.005341
51.566	0.009766	0.15762	0.025024	-0.003357	-0.005035	0.017395	0.088806	0.011902	0.10147	0.051575	-0.087738	0.002899	0.027771	0.06073	-0.35233	-0.007629	-0.037537	-0.2565	0.10864	-0.091095	0.087738	0.055847	0.18249	0.062561	0.006256	-0.012665	0.13504	-0.001984	-0.43091	-0.040436	0.000458	0.011749
51.567	0.009918	0.16495	0.010223	-0.01297	-0.007172	0.031281	0.12711	0.020752	0.1268	0.027161	0.057373	0.005188	0.078583	0.03006	-0.086365	-0.001831	-0.010986	-0.26047	0.057983	-0.087738	0.21851	-0.055084	0.20386	-0.026398	-0.001068	0.009918	-0.38818	-0.002594	0.89798	-0.14038	0.001678	0.000916
51.568	0.006104	0.10117	-0.037689	-0.018311	-0.005798	0.008545	0.14542	0.017395	0.15549	-0.021362	0.36179	0.009613	0.066681	0.037689	-0.10544	0.003052	-0.012665	-0.20813	-0.22293	-0.029755	0.13657	-0.095062	0.25116	-0.07843	-0.066986	0.000153	-0.50705	-0.005798	1.4026	-0.089417	-0.007629	-0.000458
51.569	0.00946	0.083008	0.019073	-0.00946	-0.004578	0.016937	0.19302	0.002441	0.18341	-0.037231	0.38345	0.012512	-0.025635	0.022278	-0.028381	0.004883	-0.015869	-0.23636	-0.072479	0.084991	0.057068	-0.069885	0.27283	-0.17075	-0.074615	-0.001678	-0.48035	-0.001373	0.27679	-0.074463	0.002899	0.008392
51.57	0.014801	0.063019	0.018463	-0.000305	-0.00824	-0.007324	0.15442	0.004578	0.21286	-0.024567	0.26611	0.004425	-0.034637	0.035706	0.14969	-0.003815	-0.019226	-0.2385	-0.25284	0.15228	0.045013	0.074158	0.18555	-0.13321	-0.088196	0.003052	-0.55725	-0.005493	-0.78049	-0.094147	0.003662	-0.000153
51.571	0.00473	0.043488	0.012512	0.000153	-0.001984	-0.007477	0.12924	0.003662	0.23468	-0.029602	0.18936	0.009766	0.02594	0.023956	0.23209	-0.01297	-0.022888	-0.11551	0.024719	0.12772	0.046082	0.033264	-0.097504	-0.16373	-0.12344	0.00061	-0.67474	-0.008392	0.092773	-0.027924	0.000458	0.007477
51.572	0.010986	0.076904	-0.014191	-0.004272	-0.008698	0.001678	0.059357	0.005188	0.2507	-0.025787	0.18417	0.001373	0.093994	0.003815	-0.033264	0.000153	-0.002441	-0.16937	0.08667	0.11993	-0.034485	-0.16739	-0.21439	-0.006104	-0.014801	0.002136	-0.43549	-0.010986	-0.41092	0.13473	-0.000305	0.00412
51.573	0.003815	0.053253	-0.009613	-0.010223	-0.001526	0.007782	0.020294	0.014191	0.26672	-0.039673	0.019226	0.005951	0.19089	0.076141	0.009613	0.008392	0.02243	-0.1619	-0.089874	0.08255	-0.18494	-0.1796	0.087433	0.025024	0.017242	0.006561	-0.2121	-0.006104	-0.54977	0.159	0.005951	-0.002747
51.574	0.010223	0.036163	-0.008545	-0.007935	-0.007172	0.006561	0.048523	0.016174	0.26184	-0.044098	0.043945	0.003052	0.13657	0.14633	0.99838	-0.005188	0.024414	-0.16846	-0.17288	0.068054	-0.17334	-0.02182	0.023804	0.10941	0.031586	0.002594	-0.056305	-0.00946	-0.048981	0.18143	0.001984	-0.005798
51.575	0.005188	0.023956	-0.026398	-0.003052	-0.00824	0.001831	0.058899	0.014496	0.27695	-0.04425	-0.083771	0.005341	0.063629	0.1442	-0.037231	-0.003662	0.016632	-0.13138	-0.12787	-0.002747	0.039978	0.039368	-0.16937	0.045013	0.10452	-0.006714	0.11704	-0.005646	-0.44235	0.19379	0.00061	-0.006866
51.576	0.01297	0.058441	-0.036163	-0.001373	-0.005798	-0.006561	0.056	0.015564	0.28976	-0.028839	-0.20737	0.002594	0.04715	0.10147	0.10483	0.001984	0.003204	-0.10117	-0.034027	-0.018768	0.17532	0.007629	-0.15747	-0.005798	0.13153	-0.002136	0.2829	-0.004578	-0.64209	-0.006866	-0.003967	-0.003815
51.577	0.006866	0.03067	-0.048676	0.003052	-0.015259	-0.006866	0.045624	0.011597	0.29984	-0.036316	-0.18494	-0.003967	0.061035	0.22537	-0.34424	-0.011292	-0.005493	-0.06546	-0.06424	-0.055389	0.096893	0.032806	-0.24078	-0.024872	0.10925	0.006104	0.12314	-0.005341	0.92789	-0.13138	-0.000763	-0.005493
51.578	0.013428	0.016022	-0.041962	0.019531	-0.003204	-0.018921	0.046234	0.015106	0.30701	0.003052	-0.17944	-0.002136	0.079498	0.16586	-0.23712	-0.019989	0.000153	-0.088654	0.076752	-0.041809	0.031738	0.001221	-0.14404	0.028687	0.12283	0.000458	-0.018311	-0.002747	0.98984	-0.24963	0.001373	-0.007477
51.579	0.019073	0.015106	-0.041809	0.018616	-0.005493	-0.013275	0.053406	0.014038	0.28961	0.020294	-0.074768	-0.001984	-0.008545	-0.009308	-0.30594	-0.01297	0.014954	-0.076447	0.51529	-0.037537	-0.005951	0.034943	-0.098419	-0.035706	0.11963	0.001373	0.013123	-0.001526	-1.2581	-0.31738	0.000458	-0.007629
51.58	0.012054	0.02594	-0.041046	0.012665	-0.000305	-0.016785	0.063782	0.016937	0.28961	0.028381	-0.006714	-0.002899	-0.061951	-0.10407	-0.57831	-0.018463	0.024414	-0.05661	0.48675	0.031891	-0.037537	0.014038	-0.033875	-0.15182	0.12466	-0.000916	0.14053	-0.002289	-1.5388	-0.16937	-0.002441	-0.001221
51.581	0.009613	0.020142	-0.045929	0.016632	-0.004272	-0.009155	0.058136	0.020142	0.29648	0.011139	-0.009308	-0.003357	-0.071869	-0.066833	-0.13931	-0.019226	0.020294	-0.006409	0.13351	0.039215	-0.033875	-0.050964	-0.051727	-0.068665	0.14191	-0.002594	0.26032	-0.004425	0.23575	-0.17777	-0.00473	-0.001373
51.582	0.010681	0.041046	-0.068207	0.00412	-0.007019	-0.039673	0.055084	0.015717	0.29419	-0.026245	-0.1059	-0.002289	0.014496	-0.01709	-0.83283	-0.011292	0.030365	-0.019226	-0.035095	0.014343	-0.018768	-0.078125	0.003662	-0.00824	0.049286	-0.006256	0.47913	-0.00473	0.33615	-0.22903	0	-0.006104
51.583	0.015106	0.026245	-0.059509	0.014038	-0.042725	-0.057526	0.050507	0.009918	0.28641	-0.054626	-0.24994	0.006561	0.078888	-0.08316	-0.49515	-0.009308	0.017395	-0.021667	0.32181	-0.020294	-0.036316	-0.1178	0.028839	-0.028839	-0.009613	0.002899	0.4068	-0.002441	0.14664	-0.25665	-0.00061	0.002899
51.584	0.009766	0.032959	-0.077515	0.008087	-0.030975	-0.04425	0.04837	0.006714	0.28809	-0.041656	-0.050507	0.002441	0.061951	-0.055084	-0.077667	-0.006104	0.024109	-0.045624	0.29236	-0.009308	-0.088501	-0.076141	-0.00351	0.007782	-0.041656	0.007782	-0.16785	-0.002594	1.0658	-0.21301	0.000763	-0.003052
51.585	0.015564	0.029907	-0.09491	0.014801	0.001221	-0.062866	0.022125	0.018311	0.26062	-0.015411	0.094452	-0.002594	0.010071	-0.12558	0.14999	-0.01297	-0.008392	-0.12238	-0.087738	0.007935	-0.20004	0.014038	-0.12482	-0.005035	-0.06134	0.002289	-0.49255	-0.007629	0.95352	-0.11398	-0.006409	-0.006104
51.586	0.013733	0.077057	-0.096283	0.018768	0.009308	-0.042572	0.040588	0.018768	0.26001	-0.023804	-0.016174	-0.000458	0.06958	-0.15274	0.16083	-0.005951	-0.033875	-0.10681	-0.36011	0.012207	-0.26764	0.029907	-0.014038	0.063782	-0.085297	-0.00946	-0.53894	-0.005341	1.5372	0.12817	-0.000305	-0.005646
51.587	0.013885	0.062866	-0.085754	0.032654	-0.003967	-0.009308	0.020294	0.014343	0.24597	-0.040741	0.048218	0.007477	0.11002	-0.10895	0.09903	-0.001678	-0.018768	-0.1149	-0.44647	0.001984	-0.16678	0.16663	0.06958	0.050507	-0.066528	0	-0.091248	-0.003204	-0.87143	0.063171	-0.002441	-0.00061
51.588	0.013885	0.068207	-0.079956	0.037384	-0.001068	0.003967	0.018616	0.022125	0.2327	-0.054626	0.079498	-0.00412	0.11566	-0.049286	0.14206	0.002747	-0.027771	-0.064545	-0.23773	-0.058441	0.066528	0.383	0.10086	-0.021057	-0.086823	0.003204	0.084229	-0.003967	-1.3521	-0.10681	-0.001526	0.00061
51.589	0.012054	0.082092	-0.121	-0.003357	0.000305	0.024719	0.028076	0.014648	0.22446	-0.015259	0.074463	0.006104	0.054016	0.013123	0.064087	0.002747	-0.020905	-0.080872	-0.23544	-0.086365	0.064697	0.51514	0.12482	-0.072021	-0.092163	-0.012512	0.11612	-0.011139	0.66925	0.23651	-0.00351	-0.002594
51.59	0.014343	0.070038	-0.15045	-0.020599	-0.001984	0.039368	0.018311	0.016174	0.21118	-0.007019	0.031891	0.005646	0.005798	-0.019684	-0.007172	0.002441	-0.023041	-0.048523	0.26703	-0.2243	0.032959	0.48843	0.010681	-0.044403	0.00473	-0.021057	0.17029	-0.01236	1.1978	0.47821	0.000153	-0.003204
51.591	0.010376	0.065918	-0.025635	-0.016174	-0.001221	0.046844	0.012817	0.018921	0.20371	-0.047302	-0.028229	0.007935	-0.026703	-0.03418	0.065308	-0.007782	-0.030975	-0.059204	0.34332	-0.20035	0.025635	0.15152	-0.011139	-0.052948	0.095978	-0.021057	0.48721	-0.00946	0.54611	0.24124	-0.00351	-0.00351
51.592	0.008087	0.017242	0.11139	-0.007629	-0.032349	0.023041	0.016785	0.015106	0.19669	-0.080719	-0.086823	0.012665	-0.016937	-0.032501	0.29236	-0.003967	-0.032654	-0.16281	0.088196	-0.081024	0.073853	-0.027771	0.15854	0.033569	0.048981	-0.024109	0.74219	-0.006866	-0.90469	0.026703	-0.007324	-0.001373
